<mxfile host="Electron" agent="Mozilla/5.0 (Macintosh; Intel Mac OS X 10_15_7) AppleWebKit/537.36 (KHTML, like Gecko) draw.io/24.7.17 Chrome/128.0.6613.36 Electron/32.0.1 Safari/537.36" version="24.7.17">
  <diagram name="Page-1" id="L1znFtw4LHjlzSLDoQAo">
    <mxGraphModel dx="1122" dy="688" grid="1" gridSize="10" guides="1" tooltips="1" connect="1" arrows="1" fold="1" page="1" pageScale="1" pageWidth="827" pageHeight="1169" math="0" shadow="0">
      <root>
        <mxCell id="0" />
        <mxCell id="1" parent="0" />
        <mxCell id="gsZjfwyLaX7j5rnLrjaP-1" value="Minuteur de douche" style="ellipse;whiteSpace=wrap;html=1;aspect=fixed;" vertex="1" parent="1">
          <mxGeometry x="260" y="170" width="290" height="290" as="geometry" />
        </mxCell>
        <mxCell id="gsZjfwyLaX7j5rnLrjaP-2" value="Affichage Ã‰cran OLED" style="rounded=0;whiteSpace=wrap;html=1;" vertex="1" parent="1">
          <mxGeometry x="655" y="90" width="120" height="60" as="geometry" />
        </mxCell>
        <mxCell id="gsZjfwyLaX7j5rnLrjaP-3" value="Lancement_Minutage" style="rounded=0;whiteSpace=wrap;html=1;" vertex="1" parent="1">
          <mxGeometry x="130" y="70" width="120" height="60" as="geometry" />
        </mxCell>
        <mxCell id="gsZjfwyLaX7j5rnLrjaP-4" value="Mise sous tension" style="text;html=1;align=center;verticalAlign=middle;resizable=0;points=[];autosize=1;strokeColor=none;fillColor=none;" vertex="1" parent="1">
          <mxGeometry x="20" y="300" width="120" height="30" as="geometry" />
        </mxCell>
        <mxCell id="gsZjfwyLaX7j5rnLrjaP-5" value="Alertes" style="rounded=0;whiteSpace=wrap;html=1;" vertex="1" parent="1">
          <mxGeometry x="670" y="292" width="120" height="60" as="geometry" />
        </mxCell>
        <mxCell id="gsZjfwyLaX7j5rnLrjaP-7" value="" style="endArrow=classic;html=1;rounded=0;dashed=1;dashPattern=8 8;" edge="1" parent="1" target="gsZjfwyLaX7j5rnLrjaP-1">
          <mxGeometry width="50" height="50" relative="1" as="geometry">
            <mxPoint x="250" y="130" as="sourcePoint" />
            <mxPoint x="300" y="80" as="targetPoint" />
          </mxGeometry>
        </mxCell>
        <mxCell id="gsZjfwyLaX7j5rnLrjaP-8" value="BP_Minutage" style="text;html=1;align=center;verticalAlign=middle;resizable=0;points=[];autosize=1;strokeColor=none;fillColor=none;" vertex="1" parent="1">
          <mxGeometry x="255" y="128" width="100" height="30" as="geometry" />
        </mxCell>
        <mxCell id="gsZjfwyLaX7j5rnLrjaP-9" value="" style="endArrow=classic;html=1;rounded=0;" edge="1" parent="1" source="gsZjfwyLaX7j5rnLrjaP-1">
          <mxGeometry width="50" height="50" relative="1" as="geometry">
            <mxPoint x="620" y="170" as="sourcePoint" />
            <mxPoint x="650" y="140" as="targetPoint" />
          </mxGeometry>
        </mxCell>
        <mxCell id="gsZjfwyLaX7j5rnLrjaP-10" value="Commande_Ecran_OLED" style="text;html=1;align=center;verticalAlign=middle;resizable=0;points=[];autosize=1;strokeColor=none;fillColor=none;rotation=-35;" vertex="1" parent="1">
          <mxGeometry x="495" y="140" width="160" height="30" as="geometry" />
        </mxCell>
        <mxCell id="gsZjfwyLaX7j5rnLrjaP-11" value="" style="endArrow=classic;html=1;rounded=0;dashed=1;dashPattern=8 8;entryX=0;entryY=0.5;entryDx=0;entryDy=0;" edge="1" parent="1" target="gsZjfwyLaX7j5rnLrjaP-1">
          <mxGeometry width="50" height="50" relative="1" as="geometry">
            <mxPoint x="144" y="315" as="sourcePoint" />
            <mxPoint x="322" y="214" as="targetPoint" />
          </mxGeometry>
        </mxCell>
        <mxCell id="gsZjfwyLaX7j5rnLrjaP-12" value="" style="endArrow=classic;html=1;rounded=0;entryX=0;entryY=0.133;entryDx=0;entryDy=0;entryPerimeter=0;" edge="1" parent="1" target="gsZjfwyLaX7j5rnLrjaP-5">
          <mxGeometry width="50" height="50" relative="1" as="geometry">
            <mxPoint x="550" y="300" as="sourcePoint" />
            <mxPoint x="667" y="290" as="targetPoint" />
          </mxGeometry>
        </mxCell>
        <mxCell id="gsZjfwyLaX7j5rnLrjaP-13" value="Etat_LED" style="text;html=1;align=center;verticalAlign=middle;resizable=0;points=[];autosize=1;strokeColor=none;fillColor=none;" vertex="1" parent="1">
          <mxGeometry x="565" y="270" width="70" height="30" as="geometry" />
        </mxCell>
        <mxCell id="gsZjfwyLaX7j5rnLrjaP-14" value="" style="endArrow=classic;html=1;rounded=0;entryX=-0.008;entryY=0.367;entryDx=0;entryDy=0;entryPerimeter=0;" edge="1" parent="1">
          <mxGeometry width="50" height="50" relative="1" as="geometry">
            <mxPoint x="551" y="337" as="sourcePoint" />
            <mxPoint x="670" y="337" as="targetPoint" />
          </mxGeometry>
        </mxCell>
        <mxCell id="gsZjfwyLaX7j5rnLrjaP-16" value="Etat_Buzzer" style="text;html=1;align=center;verticalAlign=middle;resizable=0;points=[];autosize=1;strokeColor=none;fillColor=none;" vertex="1" parent="1">
          <mxGeometry x="555" y="307" width="90" height="30" as="geometry" />
        </mxCell>
        <mxCell id="gsZjfwyLaX7j5rnLrjaP-17" value="" style="endArrow=classic;startArrow=classic;html=1;rounded=0;" edge="1" parent="1">
          <mxGeometry width="50" height="50" relative="1" as="geometry">
            <mxPoint x="520" y="490" as="sourcePoint" />
            <mxPoint x="480" y="440" as="targetPoint" />
          </mxGeometry>
        </mxCell>
        <mxCell id="gsZjfwyLaX7j5rnLrjaP-18" value="Data_Bluetooth" style="text;html=1;align=center;verticalAlign=middle;resizable=0;points=[];autosize=1;strokeColor=none;fillColor=none;" vertex="1" parent="1">
          <mxGeometry x="490" y="430" width="110" height="30" as="geometry" />
        </mxCell>
      </root>
    </mxGraphModel>
  </diagram>
</mxfile>
